<?xml version="1.0" encoding="utf-8"?>
<!-- Generator: Adobe Illustrator 21.0.0, SVG Export Plug-In . SVG Version: 6.00 Build 0)  -->
<svg version="1.1" id="Layer_1" xmlns="http://www.w3.org/2000/svg" xmlns:xlink="http://www.w3.org/1999/xlink" x="0px" y="0px"
	 viewBox="0 0 1000 1000" style="enable-background:new 0 0 1000 1000;" xml:space="preserve">
<style type="text/css">
	.st0{fill:#FFFFFF;}
</style>
<g>
	<path class="st0" d="M409.1,542.2c0.7-1.4,67.6-142.7,94.9-200.7c0.7-1.5,1.4-3,2.1-4.5c34.3,94.3,73.9,202.2,74.4,203.6l4.7,12.7
		h120.4V333.1c0-84.4-36.6-132.8-100.4-132.8c-38.4,0-67.1,18.9-90.3,46.9c-3.7-10.2-7-20-10.3-29.2
		C477.2,139.2,459,87.1,388.3,87.1c-59.9,0-97.1,43.4-97.1,113.3v352.9h112.7L409.1,542.2z M605.2,239.2c40.8,0,61.5,31.6,61.5,93.9
		v181.3h-54.4c-13.2-36-51.7-141.1-81.4-223C550.5,261.1,574,239.2,605.2,239.2z M330,514.4V200.4c0-34,10.1-74.5,58.3-74.5
		c41.3,0,51.3,23.5,79.7,105c3.7,10.7,7.7,22.2,12.1,34.3c2.5,7,5.2,14.4,8,22c-6.8,12.1-13.2,24.8-19.3,37.7
		c-22.7,48.4-73.2,154.8-89.6,189.5H330z"/>
	<path class="st0" d="M929.8,682.1v17c-3.4-2.4-7-4.7-10.7-6.7c-17.6-9.6-37.3-14.5-59.1-14.5l0,0l0,0c-55.8,0-119,35.7-119,117.3
		c0,76.8-69.8,76.8-69.8,76.8c-31.6,0-66.1-21.7-66.1-76.8c0-56.7-38.4-117.3-116.9-117.3l0,0c-21.8,0-41.4,4.8-59.1,14.5
		c-7.8,4.3-14.8,9.4-21.2,15.3c3.1,4.1,6,8.4,8.7,13c5.8,10.1,9.9,21.2,12.4,33c0.1-0.1,0.1-0.3,0.2-0.4c6-11.4,14.3-20,24.6-25.8
		c6.6-3.7,13.6-6.1,20.9-7.5c1.5-0.3,3.1-0.6,4.6-0.8c2.7-0.3,5.4-0.5,8.1-0.5l0,0l0,0c42.2,0,68.6,32.3,68.6,76.4
		S583.8,913,671.2,913c97.5,0,120.6-89.8,120.6-117.7c0-40.6,23.2-76.4,67.3-76.4l0,0l0,0c2.8,0,5.7,0.2,8.4,0.5
		c1.6,0.2,3.2,0.5,4.8,0.8c7.2,1.3,14.1,3.8,20.7,7.4c10.5,5.8,18.9,14.4,25.2,25.8c6.3,11.4,9.5,25.4,9.5,41.9
		c0,16.5-3.3,30.6-9.9,42.1c-6.6,11.6-15.2,20.2-25.8,26c-10.6,5.8-22,8.7-34.1,8.7c-19,0-34.8-6.7-47.3-20
		c-4.2-4.5-7.7-9.7-10.5-15.4c-4,14.2-11,30.5-22.3,45.3c6.5,6.3,13.7,11.8,21.8,16.4c17.3,9.8,36.8,14.7,58.2,14.7
		c21.8,0,41.6-4.9,59.7-14.7c4.3-2.3,8.3-4.9,12.2-7.6v22.3h49.6V682.1H929.8z"/>
	<path class="st0" d="M765.6,895.5c-6.3,6-13.5,11.5-21.7,16v1.3h46c-1.1-0.6-2.2-1.1-3.2-1.7C778.9,906.9,771.9,901.6,765.6,895.5z
		"/>
	<path class="st0" d="M673.3,677.9c-21.8,0-41.4,4.8-59.1,14.5c-7.7,4.2-14.6,9.3-20.9,15.1c10.3,13.4,17.4,29,21.3,45.2
		c6-11.1,14.1-19.5,24.2-25.2c10.3-5.8,21.5-8.7,33.7-8.7c12.1,0,23.4,2.9,33.9,8.7c10.3,5.7,18.5,14.1,24.8,25.2
		c2.7-12.3,7.1-23.3,12.8-32.9c2.7-4.5,5.7-8.8,8.9-12.7l0,0c11.2-13.7,25.3-23.8,40.7-30.8v-72.7h-49.6v96.2
		c-3.7-2.7-7.5-5.2-11.6-7.4C714.7,682.8,695,677.9,673.3,677.9z"/>
	<path class="st0" d="M222.1,733.3c-0.7-1.9-1.5-3.8-2.3-5.7c-0.9-1.9-1.8-3.7-2.7-5.5c-1.4-2.6-2.9-5.1-4.5-7.5
		c-0.3-0.4-0.6-0.9-0.9-1.3c-1.6-2.4-3.4-4.7-5.2-6.8c-0.1-0.1-0.1-0.1-0.2-0.2c-2-2.3-4.1-4.4-6.3-6.4l0,0c-2.2-2-4.6-4-7-5.7l0,0
		h0c-0.2-0.2-0.4-0.3-0.6-0.4c-1.6-1.1-3.2-2.1-4.8-3.1l0,0l0,0c-0.9-0.5-1.8-1.1-2.7-1.6c-0.6-0.3-1.3-0.7-1.9-1
		c-36.5-19.6-88.1-16.9-115.1,6.7v-91.2H20.7V913h47.1V782c0-20.4,5.2-36,15.5-46.9c10.3-10.9,24.3-16.3,41.9-16.3
		s31.5,5.4,41.7,16.3c10.2,10.9,15.3,26.5,15.3,46.9v130.9h46.7v-60.8V775C228.8,759.4,226.6,745.6,222.1,733.3
		C222.1,733.4,222.1,733.4,222.1,733.3z"/>
	<path class="st0" d="M403.7,733.7c-10.2-17.9-24.1-31.7-41.7-41.3c-17.6-9.6-37.3-14.5-59.1-14.5s-41.4,4.8-59.1,14.5
		c-5.3,2.9-10.2,6.2-14.8,9.8c1.5,2.2,2.9,4.5,4.2,7c1,1.8,1.9,3.7,2.7,5.5c0.8,1.8,1.6,3.7,2.3,5.7c0,0,0,0.1,0.1,0.1
		c3.5,9.4,5.6,19.9,6.3,31.4c6-10.7,13.9-18.8,23.7-24.3c10.3-5.8,21.5-8.7,33.7-8.7c12.1,0,23.4,2.9,33.9,8.7
		c10.5,5.8,18.9,14.4,25.2,25.8c6.3,11.4,9.5,25.4,9.5,41.9s-3.3,30.6-9.9,42.1c-6.6,11.6-15.2,20.2-25.8,26
		c-10.6,5.8-22,8.7-34.1,8.7c-19,0-34.8-6.7-47.3-20c-3.3-3.5-6.1-7.5-8.5-11.8v11.9v44.1v3.3c16.7,8.9,35.3,13.4,55.8,13.4
		c21.8,0,41.6-4.9,59.7-14.7c18-9.8,32.3-23.6,42.8-41.5c10.5-17.9,15.7-38.4,15.7-61.5C419,772.1,413.9,751.6,403.7,733.7z"/>
	<path class="st0" d="M546.1,837.3c-6.6,11.6-15.2,20.2-25.8,26c-10.6,5.8-22,8.7-34.1,8.7c-19,0-34.8-6.7-47.3-20
		c-4-4.3-7.4-9.3-10.1-14.7c-2.6,11.6-6.7,22.5-12.6,32.4c-2.7,4.7-5.8,9.1-9,13.2c6.2,5.9,13.1,11,20.7,15.3
		c17.4,9.8,36.8,14.7,58.2,14.7c21.8,0,41.6-4.9,59.7-14.7c7.9-4.3,15.1-9.4,21.5-15.3c-10.6-14.4-17.3-30.8-21-46.3
		C546.3,836.9,546.2,837.1,546.1,837.3z"/>
</g>
</svg>
