<svg width="48" height="48" viewBox="0 0 48 48" fill="none" xmlns="http://www.w3.org/2000/svg">
<path d="M23.9467 0.666748L0.666748 11.3808V36.2614L23.9467 47.3334L47.3334 36.2614V11.3808L23.9467 0.666748ZM23.9551 3.1718L30.3413 6.10196L11.6256 15.4222L4.59076 12.0819L23.9551 3.1718ZM22.773 44.2541L3.12969 34.9117V13.9084L10.189 17.2637V20.3207L11.1246 20.425L12.7169 22.0058L14.3916 22.3117L15.7133 23.4452V19.8814L22.773 23.2366V44.2541ZM17.0596 18.002L36.1695 8.77144L43.4508 12.1117L24.0041 21.2974L17.0596 18.002ZM44.8705 34.9044L25.2352 44.2093V23.2359L44.8705 13.9609V34.9044Z" fill="black"/>
</svg>
