<svg width="24" height="24" viewBox="0 0 24 24" fill="none" xmlns="http://www.w3.org/2000/svg">
<g clip-path="url(#clip0)">
<path d="M11.2555 11.1148L2.27109 7.33192C2.14238 7.27771 2 7.37224 2 7.51192V17.6252C2 17.8807 2.15559 18.1106 2.39289 18.2054L11.1071 21.6911C11.2354 21.7425 11.375 21.648 11.375 21.5098V11.2948C11.375 11.2163 11.3279 11.1453 11.2555 11.1148Z" fill="#52BAD1"/>
<path d="M12.0754 10.04L20.7596 6.38347C20.9157 6.31777 20.9198 6.09808 20.7664 6.02648L12.2639 2.05862C12.0964 1.98046 11.9028 1.98046 11.7353 2.05862L3.23284 6.02644C3.07937 6.09804 3.08355 6.31773 3.23964 6.38343L11.9238 10.0399C11.9723 10.0603 12.0269 10.0603 12.0754 10.04Z" fill="#52BAD1"/>
<path d="M17.625 12.0002C19.2777 12.0002 20.7661 12.7169 21.7961 13.8556C21.868 13.9352 22 13.8846 22 13.7773V7.51192C22 7.37224 21.8576 7.27771 21.7289 7.33192L12.7445 11.1148C12.6721 11.1453 12.625 11.2162 12.625 11.2948V14.6071C12.625 14.725 12.7793 14.7689 12.8414 14.6688C13.8341 13.0683 15.6071 12.0002 17.625 12.0002Z" fill="#52BAD1"/>
<path d="M17.625 13.25C15.2126 13.25 13.25 15.2126 13.25 17.625C13.25 20.0374 15.2126 22 17.625 22C20.0374 22 22 20.0374 22 17.625C22 15.2126 20.0374 13.25 17.625 13.25ZM19.0044 18.1205C19.2485 18.3646 19.2485 18.7604 19.0044 19.0045C18.8824 19.1265 18.7225 19.1875 18.5625 19.1875C18.4025 19.1875 18.2426 19.1265 18.1206 19.0045L17.625 18.5089L17.1294 19.0045C17.0074 19.1265 16.8475 19.1875 16.6875 19.1875C16.5275 19.1875 16.3676 19.1265 16.2456 19.0045C16.0015 18.7604 16.0015 18.3646 16.2456 18.1205L16.7411 17.625L16.2456 17.1295C16.0015 16.8854 16.0015 16.4896 16.2456 16.2455C16.4896 16.0015 16.8854 16.0015 17.1295 16.2455L17.625 16.7411L18.1206 16.2455C18.3646 16.0014 18.7604 16.0014 19.0045 16.2455C19.2486 16.4896 19.2486 16.8853 19.0045 17.1294L18.5089 17.625L19.0044 18.1205Z" fill="#EB5757"/>
</g>
<defs>
<clipPath id="clip0">
<rect width="20" height="20" fill="white" transform="translate(2 2)"/>
</clipPath>
</defs>
</svg>
