<svg width="24" height="24" viewBox="0 0 24 24" fill="none" xmlns="http://www.w3.org/2000/svg">
<path d="M12 19.8621C6.0583 19.8621 1.24133 18.6364 1.24133 17.3793V20.2742C1.24464 21.5305 6.05995 22.7586 12 22.7586C17.94 22.7586 22.7553 21.5305 22.7586 20.2742V17.3793C22.7586 18.6364 17.9416 19.8621 12 19.8621Z" fill="#E4AF18"/>
<path d="M10.7586 15.3104C4.81697 15.3104 0 14.0847 0 12.8276V15.7225C0.00331034 16.9788 4.81862 18.2069 10.7586 18.2069C16.6986 18.2069 21.5139 16.9788 21.5172 15.7225V12.8276C21.5172 14.0847 16.7003 15.3104 10.7586 15.3104Z" fill="#F4BF1A"/>
<path d="M13.2414 10.7587C7.29975 10.7587 2.48279 9.53302 2.48279 8.27592V11.1708C2.4861 12.4271 7.30141 13.6552 13.2414 13.6552C19.1814 13.6552 23.9967 12.4271 24 11.1708V8.27592C24 9.53302 19.1831 10.7587 13.2414 10.7587Z" fill="#E4AF18"/>
<path d="M21.5172 3.36416C21.5172 4.62085 16.7003 5.79313 10.7586 5.79313C4.81697 5.79313 0 4.62085 0 3.36416C0 2.10706 4.81697 1.2414 10.7586 1.2414C16.7003 1.2414 21.5172 2.10706 21.5172 3.36416Z" fill="#FFD949"/>
<path d="M10.7586 5.79313C4.81697 5.79313 0 4.56747 0 3.31037V6.20526C0.00331034 7.46154 4.81862 8.68968 10.7586 8.68968C16.6986 8.68968 21.5139 7.46154 21.5172 6.20526V3.31037C21.5172 4.56747 16.7003 5.79313 10.7586 5.79313Z" fill="#F4BF1A"/>
<path d="M1.65515 4.58239V7.47687C1.90674 7.56956 2.18232 7.65894 2.48274 7.74418V4.84929C2.18232 4.76404 1.90674 4.67467 1.65515 4.58239Z" fill="#DCA815"/>
<path d="M19.0344 4.84929V7.74418C19.3348 7.65894 19.6104 7.56956 19.862 7.47687V4.58239C19.6104 4.67508 19.3348 4.76404 19.0344 4.84929Z" fill="#DCA815"/>
<path d="M3.72412 5.14971V8.04501C3.98895 8.10005 4.26495 8.15219 4.55171 8.20143V5.30612C4.26495 5.25688 3.98895 5.20474 3.72412 5.14971Z" fill="#DCA815"/>
<path d="M16.9656 5.30612V8.20184C17.2523 8.15219 17.5283 8.10005 17.7932 8.04501V5.14971C17.5283 5.20474 17.2523 5.25688 16.9656 5.30612Z" fill="#DCA815"/>
<path d="M5.79309 5.49062V8.38634C6.06288 8.4211 6.33806 8.45338 6.62068 8.48234V5.58662C6.33806 5.55765 6.06288 5.52496 5.79309 5.49062Z" fill="#DCA815"/>
<path d="M14.8966 5.58703V8.48276C15.1792 8.45338 15.4544 8.4211 15.7242 8.38676V5.49062C15.4544 5.52579 15.1792 5.55807 14.8966 5.58703Z" fill="#DCA815"/>
<path d="M7.86206 5.69338V8.58952C8.13392 8.60855 8.40951 8.62552 8.68965 8.63917V5.74262C8.40951 5.72897 8.13392 5.71241 7.86206 5.69338Z" fill="#DCA815"/>
<path d="M12.8276 5.74262V8.63917C13.1078 8.62552 13.3834 8.60855 13.6552 8.58952V5.69338C13.3834 5.71241 13.1078 5.72897 12.8276 5.74262Z" fill="#DCA815"/>
<path d="M10.7586 5.79311C10.62 5.79311 10.4822 5.79187 10.3448 5.79063V8.68718C10.4822 8.68842 10.62 8.68967 10.7586 8.68967C10.8973 8.68967 11.0351 8.68842 11.1724 8.68718V5.79063C11.0351 5.79187 10.8973 5.79311 10.7586 5.79311Z" fill="#DCA815"/>
<path d="M4.13794 9.54787V12.4424C4.38953 12.535 4.66511 12.6244 4.96553 12.7097V9.81477C4.66511 9.72953 4.38953 9.64015 4.13794 9.54787Z" fill="#C49214"/>
<path d="M21.5172 9.81477V12.7097C21.8176 12.6244 22.0932 12.535 22.3448 12.4424V9.54787C22.0932 9.64056 21.8176 9.72953 21.5172 9.81477Z" fill="#C49214"/>
<path d="M6.20691 10.1152V13.0105C6.47174 13.0655 6.74774 13.1177 7.0345 13.1669V10.2716C6.74774 10.2224 6.47174 10.1702 6.20691 10.1152Z" fill="#C49214"/>
<path d="M19.4482 10.2716V13.1673C19.735 13.1177 20.011 13.0655 20.2758 13.0105V10.1152C20.011 10.1702 19.735 10.2224 19.4482 10.2716Z" fill="#C49214"/>
<path d="M8.27588 10.4566V13.3523C8.54567 13.387 8.82085 13.4193 9.10347 13.4483V10.5526C8.82085 10.5232 8.54567 10.4909 8.27588 10.4566Z" fill="#C49214"/>
<path d="M17.3793 10.5521V13.4483C17.6619 13.4189 17.9371 13.3866 18.2069 13.3523V10.4566C17.9371 10.4913 17.6619 10.5236 17.3793 10.5521Z" fill="#C49214"/>
<path d="M10.3448 10.6589V13.5551C10.6167 13.5741 10.8923 13.5911 11.1724 13.6047V10.7082C10.8923 10.6945 10.6167 10.678 10.3448 10.6589Z" fill="#C49214"/>
<path d="M15.3103 10.7082V13.6047C15.5904 13.5911 15.866 13.5741 16.1379 13.5551V10.6589C15.866 10.678 15.5904 10.6945 15.3103 10.7082Z" fill="#C49214"/>
<path d="M13.2414 10.7587C13.1028 10.7587 12.965 10.7574 12.8276 10.7562V13.6527C12.965 13.654 13.1028 13.6552 13.2414 13.6552C13.38 13.6552 13.5178 13.654 13.6552 13.6527V10.7562C13.5178 10.7574 13.38 10.7587 13.2414 10.7587Z" fill="#C49214"/>
<path d="M1.65515 14.0996V16.9941C1.90674 17.0868 2.18232 17.1757 2.48274 17.2614V14.3665C2.18232 14.2812 1.90674 14.1919 1.65515 14.0996Z" fill="#DCA815"/>
<path d="M19.0344 14.3665V17.2614C19.3348 17.1761 19.6104 17.0868 19.862 16.9941V14.0996C19.6104 14.1923 19.3348 14.2812 19.0344 14.3665Z" fill="#DCA815"/>
<path d="M3.72412 14.6669V17.5622C3.98895 17.6172 4.26495 17.6694 4.55171 17.7186V14.8233C4.26495 14.7741 3.98895 14.7219 3.72412 14.6669Z" fill="#DCA815"/>
<path d="M16.9656 14.8233V17.719C17.2523 17.6694 17.5283 17.6172 17.7932 17.5622V14.6669C17.5283 14.7219 17.2523 14.7741 16.9656 14.8233Z" fill="#DCA815"/>
<path d="M5.79309 15.0083V17.904C6.06288 17.9388 6.33806 17.9711 6.62068 18V15.1043C6.33806 15.0749 6.06288 15.0427 5.79309 15.0083Z" fill="#DCA815"/>
<path d="M14.8966 15.1039V18C15.1792 17.9707 15.4544 17.9384 15.7242 17.904V15.0083C15.4544 15.0431 15.1792 15.0754 14.8966 15.1039Z" fill="#DCA815"/>
<path d="M7.86206 15.2106V18.1068C8.13392 18.1258 8.40951 18.1428 8.68965 18.1564V15.2599C8.40951 15.2462 8.13392 15.2297 7.86206 15.2106Z" fill="#DCA815"/>
<path d="M12.8276 15.2599V18.1564C13.1078 18.1428 13.3834 18.1258 13.6552 18.1068V15.2106C13.3834 15.2297 13.1078 15.2462 12.8276 15.2599Z" fill="#DCA815"/>
<path d="M10.7586 15.3104C10.62 15.3104 10.4822 15.3091 10.3448 15.3079V18.2044C10.4822 18.2057 10.62 18.2069 10.7586 18.2069C10.8973 18.2069 11.0351 18.2057 11.1724 18.2044V15.3079C11.0351 15.3091 10.8973 15.3104 10.7586 15.3104Z" fill="#DCA815"/>
<path d="M2.89661 18.6514V21.5458C3.14819 21.6385 3.42378 21.7275 3.72419 21.8131V18.9182C3.42378 18.833 3.14819 18.7436 2.89661 18.6514Z" fill="#C49214"/>
<path d="M20.2759 18.9182V21.8131C20.5763 21.7279 20.8519 21.6385 21.1035 21.5458V18.6514C20.8519 18.744 20.5763 18.833 20.2759 18.9182Z" fill="#C49214"/>
<path d="M4.96558 19.2187V22.114C5.2304 22.169 5.5064 22.2212 5.79316 22.2704V19.3751C5.5064 19.3258 5.2304 19.2737 4.96558 19.2187Z" fill="#C49214"/>
<path d="M18.2069 19.3751V22.2708C18.4937 22.2212 18.7697 22.169 19.0345 22.114V19.2187C18.7697 19.2737 18.4937 19.3258 18.2069 19.3751Z" fill="#C49214"/>
<path d="M7.03442 19.56V22.4558C7.30422 22.4905 7.57939 22.5228 7.86201 22.5518V19.656C7.57939 19.6266 7.30422 19.5944 7.03442 19.56Z" fill="#C49214"/>
<path d="M16.1379 19.6556V22.5518C16.4206 22.5224 16.6957 22.4901 16.9655 22.4558V19.56C16.6957 19.5948 16.4206 19.6271 16.1379 19.6556Z" fill="#C49214"/>
<path d="M9.10339 19.7623V22.6585C9.37526 22.6775 9.65084 22.6945 9.93098 22.7081V19.8116C9.65084 19.7979 9.37526 19.7814 9.10339 19.7623Z" fill="#C49214"/>
<path d="M14.069 19.8116V22.7081C14.3491 22.6945 14.6247 22.6775 14.8966 22.6585V19.7623C14.6247 19.7814 14.3491 19.7979 14.069 19.8116Z" fill="#C49214"/>
<path d="M12 19.8621C11.8614 19.8621 11.7236 19.8608 11.5862 19.8596V22.7561C11.7236 22.7574 11.8614 22.7586 12 22.7586C12.1386 22.7586 12.2764 22.7574 12.4138 22.7561V19.8596C12.2764 19.8608 12.1386 19.8621 12 19.8621Z" fill="#C49214"/>
<path d="M21.1911 16.2919C20.016 17.3256 15.7915 18.2069 10.7586 18.2069C6.8234 18.2069 3.38354 17.6678 1.50782 16.9387C1.33526 17.0951 1.24133 17.2606 1.24133 17.4332C1.24133 18.6903 6.0583 19.8621 12 19.8621C17.942 19.8621 22.7586 18.6903 22.7586 17.4332C22.7586 16.9999 22.1855 16.6126 21.1911 16.2919Z" fill="#FCC62D"/>
<path d="M13.2414 13.6552C7.77393 13.6552 3.26234 12.6145 2.57628 11.4692C0.971172 11.8329 0 12.3174 0 12.8814C0 14.1381 4.81697 15.3104 10.7586 15.3104C16.7003 15.3104 21.5172 14.1381 21.5172 12.8814C21.5172 12.826 21.5048 12.7718 21.4862 12.718C19.5128 13.2733 16.5526 13.6552 13.2414 13.6552Z" fill="#FFD949"/>
<path d="M21.1006 6.84788C19.8133 7.84926 15.672 8.68968 10.7587 8.68968C7.58568 8.68968 4.73424 8.33878 2.765 7.82071C2.58251 7.98209 2.48279 8.15175 2.48279 8.32968C2.48279 9.58678 7.29975 10.7586 13.2414 10.7586C19.1831 10.7586 24 9.58678 24 8.32968C24 7.72885 22.8981 7.21781 21.1006 6.84788Z" fill="#FCC62D"/>
</svg>
