<svg width="24" height="24" viewBox="0 0 24 24" fill="none" xmlns="http://www.w3.org/2000/svg">
<path d="M11.3643 19.9501C10.7182 19.9494 10.1527 19.5164 9.98354 18.8928C9.97778 18.8712 9.97778 18.8497 9.97325 18.8279L6.03927 16.7021C5.93272 16.6411 5.81205 16.609 5.68928 16.6094C5.64341 16.6094 5.59755 16.6136 5.55238 16.6221C5.49048 16.6329 5.43031 16.6524 5.37381 16.68C5.24529 16.741 5.13822 16.8397 5.06707 16.9632C5.00481 17.072 4.97185 17.195 4.97133 17.3203C4.96959 17.5758 5.10508 17.8126 5.32638 17.9403L11.8374 21.8364C12.008 21.9432 12.2052 21.9998 12.4065 22H17.4385C17.573 21.9998 17.7062 21.9744 17.8314 21.925L19.1428 21.4071V17.5596L17.866 16.7951C17.6998 16.6955 17.5095 16.6429 17.3156 16.6429H15.9467C15.7287 16.6429 15.5116 16.6715 15.3011 16.7278L11.1786 17.8308C10.8893 17.911 10.6799 18.1618 10.6525 18.4607V18.5775C10.6549 18.6221 10.6617 18.6664 10.6732 18.7097C10.7582 19.021 11.0415 19.2367 11.3643 19.2358C11.4077 19.2321 11.6179 19.1892 11.7808 19.1518L15.4793 18.1621L15.6635 18.8522L11.9529 19.8449C11.76 19.8967 11.5631 19.932 11.3643 19.9501Z" fill="#52BAD1"/>
<path d="M19.8572 16.2857H22V22H19.8572V16.2857Z" fill="#52BAD1"/>
<path d="M2 2H4.14286V8.42857H2V2Z" fill="#52BAD1"/>
<path d="M6.07579 7.61995C6.5632 7.94361 7.12978 8.12829 7.71432 8.15427V6.42855C7.45047 6.33229 7.20389 6.19382 6.98434 6.01857L6.77508 5.84889L7.22499 5.29399L7.43216 5.46175C8.13982 6.02746 9.14882 6.01246 9.83939 5.42618L10.0893 5.21185L12.1964 7.31896C12.4768 7.59798 12.9302 7.59711 13.2094 7.31687C13.4884 7.03646 13.4875 6.58305 13.2071 6.30404L10.6869 3.78102L11.1918 3.27617L12.0586 4.14287H15.0058L13.595 2.73208C13.1273 2.26176 12.4906 1.99809 11.8272 2.00001H7.33712C7.17093 2.00001 7.00701 2.0389 6.85826 2.11319L6.05748 2.51358C5.78979 2.64698 5.49299 2.71133 5.19392 2.70069L4.85718 2.68866V7.35715H5.67854L6.07579 7.61995Z" fill="#52BAD1"/>
<path d="M8.42859 6.57816V12.7143H22V4.85714H12.7729L13.4872 5.57143H19.5V5.92857C19.5 6.71749 20.1397 7.35714 20.9286 7.35714H21.2857V10.2143H20.9286C20.1397 10.2143 19.5 10.8539 19.5 11.6429V12H10.9286V11.6429C10.9286 10.8539 10.2889 10.2143 9.50002 10.2143H9.14287V7.35714H9.50002C9.95272 7.35679 10.3784 7.14143 10.6468 6.77679L10.0375 6.16748C9.56053 6.47667 8.99534 6.62106 8.42859 6.57816Z" fill="#FFD949"/>
<path d="M12.7044 8.23901C12.3263 8.23988 11.9634 8.09113 11.695 7.82502L11.1562 7.28564C10.8292 7.68708 10.3676 7.95581 9.85718 8.04178V9.52964C10.7558 9.68328 11.4596 10.3871 11.6132 11.2857H18.8154C18.969 10.3871 19.6729 9.68328 20.5715 9.52964V8.04178C19.6729 7.88815 18.969 7.18433 18.8154 6.28571H14.0329C14.2036 6.70686 14.16 7.18467 13.9158 7.5678C14.5708 6.87409 15.6557 6.81794 16.3789 7.4405C17.1022 8.06306 17.2083 9.14408 16.6197 9.89516C16.0313 10.6464 14.9562 10.8021 14.1786 10.2488C13.4012 9.69566 13.1961 8.62894 13.7129 7.82676C13.4438 8.09113 13.0816 8.23919 12.7044 8.23901Z" fill="#FFD949"/>
<path d="M16.2857 8.78571C16.2857 9.37741 15.8059 9.85714 15.2143 9.85714C14.6226 9.85714 14.1428 9.37741 14.1428 8.78571C14.1428 8.19402 14.6226 7.71429 15.2143 7.71429C15.8059 7.71429 16.2857 8.19402 16.2857 8.78571Z" fill="#FFD949"/>
</svg>
