<svg width="24" height="24" viewBox="0 0 24 24" fill="none" xmlns="http://www.w3.org/2000/svg">
<path d="M12.0004 5.06109L9.17969 3.30835L9.18359 3.30718C11.0154 2.71959 12.9852 2.72055 14.8164 3.30991L14.8172 3.3107L12.0004 5.06109Z" fill="#B0B5CA"/>
<path d="M20.1297 9.64844L20.5977 10.7496L17.3953 11.627H17.3633V10.3984H17.3953L20.1219 9.65156L20.1297 9.64844Z" fill="#6ADDC7"/>
<path d="M19.1234 7.27812C18.7341 6.36175 18.0855 5.57915 17.2572 5.02658C16.429 4.47401 15.4573 4.17557 14.4617 4.16797L12 5.06172V20.2488L13.1207 21.1316L17.3633 20.9558V10.3965H17.3953L20.1219 9.64961L20.1297 9.64648L19.1234 7.27812Z" fill="#3BB7ED"/>
<path d="M9.53809 4.16797C8.54247 4.17557 7.57079 4.47401 6.74256 5.02658C5.91433 5.57915 5.26567 6.36175 4.87637 7.27812L3.87012 9.64609L6.63652 10.3965V20.9558L10.84 21.1316L11.9998 20.2488V5.06172L9.53809 4.16797Z" fill="#49BDFF"/>
<path d="M6.63672 10.3988V11.6273L3.40234 10.75L3.87031 9.64844L6.63672 10.3988Z" fill="#6ADDC7"/>
<path d="M16.0242 9.59766V11.384C16.0242 11.5046 15.9933 11.6233 15.9344 11.7286C15.8755 11.8339 15.7907 11.9224 15.6879 11.9855L14.7035 12.591L13.7187 11.9855C13.616 11.9223 13.5312 11.8338 13.4724 11.7285C13.4136 11.6232 13.3827 11.5046 13.3828 11.384V9.59766H16.0242Z" fill="#6ADDC7"/>
<path d="M14.8168 3.31094L12 5.06133L13.5309 6.39492L14.8207 3.30859L14.8168 3.31094Z" fill="#EC6E73"/>
<path d="M14.5547 11.384V9.59766H13.3828V11.384C13.3827 11.5046 13.4136 11.6232 13.4724 11.7285C13.5312 11.8338 13.616 11.9223 13.7187 11.9855L14.7035 12.591L15.2895 12.2307L14.8906 11.9855C14.7879 11.9223 14.7031 11.8338 14.6443 11.7285C14.5855 11.6232 14.5546 11.5046 14.5547 11.384Z" fill="#92FFEA"/>
<path d="M10.52 4.52449L9.53809 4.16797C8.54247 4.17557 7.57079 4.47401 6.74256 5.02658C5.91433 5.57915 5.26567 6.36175 4.87637 7.27813L3.87012 9.6461L5.0548 9.96746L6.04824 7.62969C6.4249 6.74306 7.04464 5.98103 7.8359 5.43158C8.62716 4.88213 9.55769 4.56767 10.52 4.52449Z" fill="#99E0FF"/>
<path d="M9.17969 3.30859L10.4695 6.39492L12.0004 5.06133L9.17969 3.30859Z" fill="#EC6E73"/>
<path d="M6.63672 10.4297V20.9554L7.80859 21.0043V11.9618C7.80859 11.6131 7.69384 11.2742 7.48204 10.9973C7.27024 10.7204 6.97318 10.5209 6.63672 10.4297Z" fill="#99E0FF"/>
<path d="M3.87031 9.64844L3.40234 10.75L4.57422 11.0625L5.04016 9.96574L3.87031 9.64844Z" fill="#92FFEA"/>
<path d="M19.3392 7.18847C18.9552 6.28386 18.3289 5.5028 17.5294 4.93137C16.7299 4.35994 15.7881 4.02031 14.8079 3.94991L15.0372 3.40132C15.0509 3.36876 15.0571 3.33349 15.0552 3.2982C15.0534 3.2629 15.0435 3.22849 15.0263 3.19757C15.0092 3.16666 14.9852 3.14005 14.9563 3.11976C14.9273 3.09947 14.8942 3.08603 14.8592 3.08046C12.9908 2.48176 10.9816 2.48365 9.11425 3.08585L9.11268 3.08632L9.11186 3.08659V3.08718C9.08036 3.09641 9.05117 3.1122 9.0262 3.13351C9.00124 3.15483 8.98107 3.18119 8.96702 3.21086C8.95297 3.24052 8.94536 3.27283 8.94468 3.30565C8.94401 3.33847 8.95029 3.37106 8.96311 3.40128L9.19237 3.94987C8.21217 4.02028 7.27042 4.3599 6.4709 4.93132C5.67138 5.50275 5.04512 6.28379 4.66112 7.18839L3.18663 10.6578C3.17354 10.6887 3.1672 10.7219 3.16804 10.7554C3.16889 10.7889 3.17689 10.8218 3.19152 10.8519C3.20615 10.882 3.22706 10.9086 3.25284 10.93C3.27863 10.9514 3.30869 10.9669 3.341 10.9757L6.40237 11.8063V20.9579C6.40238 21.0183 6.42575 21.0764 6.46761 21.1201C6.50947 21.1637 6.56657 21.1895 6.62698 21.192L10.8305 21.3678C10.8851 21.3701 10.9388 21.3532 10.9822 21.3201L11.9976 20.5473L12.9757 21.3177C13.017 21.3503 13.0681 21.368 13.1207 21.368C13.1239 21.368 13.1272 21.368 13.1304 21.3678L17.373 21.192C17.4334 21.1895 17.4905 21.1637 17.5324 21.1201C17.5743 21.0765 17.5977 21.0183 17.5977 20.9579V11.8146L20.6596 10.9757C20.6919 10.9669 20.7219 10.9512 20.7476 10.9299C20.7733 10.9085 20.7941 10.8819 20.8086 10.8518C20.8232 10.8217 20.8312 10.7888 20.832 10.7554C20.8328 10.722 20.8265 10.6888 20.8134 10.658L19.3392 7.18847ZM14.2475 3.39124L12 4.78777L9.75003 3.38956C11.2246 3.0052 12.7732 3.00577 14.2475 3.39124ZM14.3217 3.89679L13.4398 6.00718L12.3932 5.09534L14.3217 3.89679ZM11.6069 5.09534L10.56 6.00718L9.67823 3.89691L11.6069 5.09534ZM6.40237 11.3206L3.72319 10.594L4.00624 9.92796L6.40237 10.5777V11.3206ZM17.3633 8.5641C17.3011 8.5641 17.2415 8.58879 17.1976 8.63274C17.1536 8.6767 17.1289 8.73631 17.1289 8.79847V20.733L13.1976 20.8959L12.2344 20.1371V9.52031C12.2344 9.45815 12.2097 9.39853 12.1658 9.35458C12.1218 9.31063 12.0622 9.28593 12 9.28593C11.9379 9.28593 11.8783 9.31063 11.8343 9.35458C11.7903 9.39853 11.7657 9.45815 11.7657 9.52031V20.1347L10.7657 20.8961L6.87112 20.7332V8.79847C6.87112 8.73631 6.84643 8.6767 6.80247 8.63274C6.75852 8.58879 6.69891 8.5641 6.63675 8.5641C6.57459 8.5641 6.51497 8.58879 6.47102 8.63274C6.42706 8.6767 6.40237 8.73631 6.40237 8.79847V10.0921L4.19143 9.4923L5.09249 7.37175C5.45325 6.52175 6.04824 5.79185 6.80808 5.26716C7.56791 4.74248 8.46126 4.44464 9.38393 4.40839L10.2529 6.48765C10.2672 6.5219 10.2895 6.55226 10.3178 6.57623C10.3461 6.6002 10.3798 6.6171 10.4159 6.62553C10.4521 6.63396 10.4897 6.63369 10.5257 6.62474C10.5617 6.61578 10.5951 6.5984 10.6231 6.57402L11.7657 5.5787V8.45992C11.7657 8.52208 11.7903 8.58169 11.8343 8.62564C11.8783 8.6696 11.9379 8.69429 12 8.69429C12.0622 8.69429 12.1218 8.6696 12.1658 8.62564C12.2097 8.58169 12.2344 8.52208 12.2344 8.45992V5.5787L13.3769 6.57402C13.4049 6.5984 13.4383 6.61578 13.4743 6.62474C13.5104 6.63369 13.548 6.63396 13.5841 6.62553C13.6203 6.6171 13.6539 6.6002 13.6822 6.57623C13.7106 6.55226 13.7328 6.5219 13.7471 6.48765L14.6161 4.40839C15.5388 4.44462 16.4322 4.74244 17.1921 5.26713C17.9519 5.79181 18.547 6.52173 18.9078 7.37175L19.8096 9.49414L17.5977 10.1V8.79847C17.5977 8.73631 17.573 8.6767 17.529 8.63274C17.4851 8.58879 17.4255 8.5641 17.3633 8.5641ZM17.5977 11.3286V10.5861L19.9945 9.92949L20.2771 10.5945L17.5977 11.3286Z" fill="#284268"/>
<path d="M16.0242 9.36328H13.3828C13.3207 9.36328 13.261 9.38797 13.2171 9.43193C13.1731 9.47588 13.1484 9.5355 13.1484 9.59766V11.384C13.1478 11.5448 13.1886 11.703 13.2671 11.8433C13.3455 11.9837 13.4588 12.1015 13.596 12.1852L14.5808 12.7907C14.6177 12.8134 14.6602 12.8254 14.7036 12.8254C14.7469 12.8254 14.7894 12.8134 14.8263 12.7907L15.8107 12.1852C15.9472 12.1006 16.0599 11.9827 16.1383 11.8425C16.2166 11.7023 16.258 11.5446 16.2586 11.384V9.59766C16.2586 9.5355 16.2339 9.47588 16.19 9.43193C16.146 9.38797 16.0864 9.36328 16.0242 9.36328ZM15.7899 11.384C15.7896 11.4645 15.7688 11.5437 15.7295 11.614C15.6902 11.6843 15.6336 11.7435 15.5651 11.7859L14.7035 12.3159L13.8415 11.7859C13.7727 11.7439 13.7159 11.6848 13.6766 11.6144C13.6373 11.544 13.6169 11.4647 13.6172 11.384V9.83203H15.7899V11.384Z" fill="#284268"/>
<path d="M11.3531 7.66016H10.8535C10.7914 7.66016 10.7317 7.68485 10.6878 7.7288C10.6438 7.77276 10.6191 7.83237 10.6191 7.89453C10.6191 7.95669 10.6438 8.01631 10.6878 8.06026C10.7317 8.10421 10.7914 8.12891 10.8535 8.12891H11.3531C11.4153 8.12891 11.4749 8.10421 11.5189 8.06026C11.5628 8.01631 11.5875 7.95669 11.5875 7.89453C11.5875 7.83237 11.5628 7.77276 11.5189 7.7288C11.4749 7.68485 11.4153 7.66016 11.3531 7.66016Z" fill="#284268"/>
<path d="M7.9873 6.46875C7.92514 6.46875 7.86553 6.49344 7.82158 6.5374C7.77762 6.58135 7.75293 6.64096 7.75293 6.70313V6.9625C7.75293 7.02466 7.77762 7.08427 7.82158 7.12823C7.86553 7.17218 7.92514 7.19688 7.9873 7.19688C8.04946 7.19688 8.10908 7.17218 8.15303 7.12823C8.19699 7.08427 8.22168 7.02466 8.22168 6.9625V6.70313C8.22168 6.64096 8.19699 6.58135 8.15303 6.5374C8.10908 6.49344 8.04946 6.46875 7.9873 6.46875Z" fill="#284268"/>
<path d="M7.9873 7.40234C7.92514 7.40234 7.86553 7.42704 7.82158 7.47099C7.77762 7.51494 7.75293 7.57456 7.75293 7.63672V9.92891C7.75293 9.99107 7.77762 10.0507 7.82158 10.0946C7.86553 10.1386 7.92514 10.1633 7.9873 10.1633C8.04946 10.1633 8.10908 10.1386 8.15303 10.0946C8.19699 10.0507 8.22168 9.99107 8.22168 9.92891V7.63672C8.22168 7.57456 8.19699 7.51494 8.15303 7.47099C8.10908 7.42704 8.04946 7.40234 7.9873 7.40234Z" fill="#284268"/>
<path d="M11.3531 9.85547H10.8535C10.7914 9.85547 10.7317 9.88016 10.6878 9.92412C10.6438 9.96807 10.6191 10.0277 10.6191 10.0898C10.6191 10.152 10.6438 10.2116 10.6878 10.2556C10.7317 10.2995 10.7914 10.3242 10.8535 10.3242H11.3531C11.4153 10.3242 11.4749 10.2995 11.5189 10.2556C11.5628 10.2116 11.5875 10.152 11.5875 10.0898C11.5875 10.0277 11.5628 9.96807 11.5189 9.92412C11.4749 9.88016 11.4153 9.85547 11.3531 9.85547Z" fill="#284268"/>
<path d="M11.3531 12.0469H10.8535C10.7914 12.0469 10.7317 12.0716 10.6878 12.1155C10.6438 12.1595 10.6191 12.2191 10.6191 12.2812C10.6191 12.3434 10.6438 12.403 10.6878 12.447C10.7317 12.4909 10.7914 12.5156 10.8535 12.5156H11.3531C11.4153 12.5156 11.4749 12.4909 11.5189 12.447C11.5628 12.403 11.5875 12.3434 11.5875 12.2812C11.5875 12.2191 11.5628 12.1595 11.5189 12.1155C11.4749 12.0716 11.4153 12.0469 11.3531 12.0469Z" fill="#284268"/>
<path d="M11.3531 14.2422H10.8535C10.7914 14.2422 10.7317 14.2669 10.6878 14.3108C10.6438 14.3548 10.6191 14.4144 10.6191 14.4766C10.6191 14.5387 10.6438 14.5983 10.6878 14.6423C10.7317 14.6862 10.7914 14.7109 10.8535 14.7109H11.3531C11.4153 14.7109 11.4749 14.6862 11.5189 14.6423C11.5628 14.5983 11.5875 14.5387 11.5875 14.4766C11.5875 14.4144 11.5628 14.3548 11.5189 14.3108C11.4749 14.2669 11.4153 14.2422 11.3531 14.2422Z" fill="#284268"/>
<path d="M11.3531 16.4336H10.8535C10.7914 16.4336 10.7317 16.4583 10.6878 16.5022C10.6438 16.5462 10.6191 16.6058 10.6191 16.668C10.6191 16.7301 10.6438 16.7897 10.6878 16.8337C10.7317 16.8777 10.7914 16.9023 10.8535 16.9023H11.3531C11.4153 16.9023 11.4749 16.8777 11.5189 16.8337C11.5628 16.7897 11.5875 16.7301 11.5875 16.668C11.5875 16.6058 11.5628 16.5462 11.5189 16.5022C11.4749 16.4583 11.4153 16.4336 11.3531 16.4336Z" fill="#284268"/>
<path d="M11.3531 18.6289H10.8535C10.7914 18.6289 10.7317 18.6536 10.6878 18.6976C10.6438 18.7415 10.6191 18.8011 10.6191 18.8633C10.6191 18.9254 10.6438 18.9851 10.6878 19.029C10.7317 19.073 10.7914 19.0977 10.8535 19.0977H11.3531C11.4153 19.0977 11.4749 19.073 11.5189 19.029C11.5628 18.9851 11.5875 18.9254 11.5875 18.8633C11.5875 18.8011 11.5628 18.7415 11.5189 18.6976C11.4749 18.6536 11.4153 18.6289 11.3531 18.6289Z" fill="#284268"/>
</svg>
